<?xml version="1.0" standalone="no"?>
<!DOCTYPE svg PUBLIC "-//W3C//DTD SVG 20010904//EN"
 "http://www.w3.org/TR/2001/REC-SVG-20010904/DTD/svg10.dtd">
<svg version="1.0" xmlns="http://www.w3.org/2000/svg"
 width="622.000000pt" height="401.000000pt" viewBox="0 0 622.000000 401.000000"
 preserveAspectRatio="xMidYMid meet">

<g transform="translate(0.000000,401.000000) scale(0.100000,-0.100000)"
fill="#000000" stroke="none">
<path d="M2814 3553 c-7 -31 -70 -277 -85 -335 l-10 -38 -249 0 c-138 0 -250
-2 -250 -4 0 -3 -92 -374 -205 -825 -113 -450 -205 -826 -205 -835 0 -14 32
-16 289 -16 284 0 290 0 296 21 4 11 94 368 200 792 l193 772 111 3 111 3 0
-796 0 -795 390 0 389 0 10 38 c5 20 24 93 41 162 17 69 36 142 41 163 l10 37
249 0 250 0 5 22 c3 13 95 384 205 825 110 442 200 810 200 818 0 13 -38 15
-290 15 -159 0 -290 -1 -290 -2 -2 -18 -399 -1580 -403 -1584 -4 -4 -118 -7
-199 -5 -17 1 -18 48 -20 794 l-3 792 -387 3 -388 2 -6 -27z m694 -855 l2
-798 138 0 c76 0 141 -2 144 -5 2 -3 -12 -71 -33 -152 l-38 -148 -310 -3 -311
-2 0 795 0 795 -140 0 c-105 0 -140 3 -140 13 -1 29 64 280 75 290 8 9 95 12
311 12 l299 0 3 -797z m1178 788 c5 -13 -358 -1482 -369 -1493 -5 -5 -397 -6
-402 -1 -5 7 371 1494 380 1500 6 4 95 8 198 7 149 0 189 -3 193 -13z m-1992
-418 c-4 -13 -89 -349 -188 -748 l-182 -725 -202 -3 c-134 -2 -202 1 -202 8 0
8 326 1322 361 1453 l10 37 205 0 205 0 -7 -22z"/>
<path d="M1041 1071 c-9 -6 -31 -105 -62 -277 -64 -355 -62 -319 -14 -319 l39
0 12 60 c6 33 19 104 29 158 9 55 21 95 25 90 4 -4 13 -73 20 -153 7 -80 14
-148 17 -152 5 -9 93 -11 93 -3 0 2 23 132 50 287 28 155 50 290 50 300 0 14
-8 18 -34 18 -19 0 -37 -4 -40 -8 -3 -5 -17 -73 -31 -153 -27 -152 -33 -175
-40 -168 -2 3 -9 68 -16 144 -14 169 -19 185 -56 185 -16 0 -34 -4 -42 -9z"/>
<path d="M1575 1070 c-12 -4 -26 -15 -33 -23 -20 -24 -108 -536 -95 -556 8
-13 31 -17 121 -19 105 -3 111 -2 129 21 21 28 109 512 99 551 -3 13 -16 26
-28 30 -33 8 -169 6 -193 -4z m135 -92 c0 -7 -14 -89 -30 -183 -17 -93 -33
-187 -36 -208 l-7 -37 -53 0 c-30 0 -54 4 -54 10 0 5 16 100 36 210 19 110 32
205 29 210 -4 6 17 10 54 10 42 0 61 -4 61 -12z"/>
<path d="M2047 1073 c-3 -5 -7 -24 -9 -43 -3 -35 -3 -35 40 -38 36 -3 42 -6
42 -25 0 -22 -37 -239 -66 -386 -21 -109 -21 -111 25 -111 35 0 40 3 45 28 21
99 76 435 76 460 0 30 1 31 52 34 46 3 52 6 61 31 18 54 10 57 -132 57 -71 0
-132 -3 -134 -7z"/>
<path d="M2550 1070 c0 -5 -22 -135 -50 -289 -27 -154 -50 -287 -50 -295 0
-12 10 -16 39 -16 35 0 40 3 45 27 18 85 96 541 96 561 0 19 -5 22 -40 22 -22
0 -40 -4 -40 -10z"/>
<path d="M2905 1070 c-12 -4 -26 -14 -33 -23 -20 -24 -108 -536 -95 -555 8
-14 31 -18 121 -20 107 -3 111 -2 130 23 11 13 23 46 27 72 3 27 22 133 41
236 40 220 42 252 15 267 -23 12 -177 12 -206 0z m135 -94 c0 -7 -13 -87 -29
-177 -16 -90 -32 -183 -36 -206 l-7 -43 -54 0 c-30 0 -54 2 -54 5 0 3 16 96
36 207 19 110 33 207 30 214 -4 11 8 14 54 14 44 0 60 -4 60 -14z"/>
<path d="M3370 1062 c0 -10 -20 -128 -44 -262 -24 -135 -47 -264 -51 -287 l-7
-43 41 0 c47 0 40 -15 71 165 22 127 30 159 36 153 2 -3 34 -292 34 -314 0
-11 91 -2 95 9 2 6 16 77 30 157 13 80 36 208 49 284 14 77 23 143 20 148 -3
4 -20 8 -39 8 -40 0 -37 7 -66 -165 -12 -71 -25 -139 -29 -150 -9 -25 -15 9
-31 180 -6 66 -13 123 -15 127 -3 5 -25 8 -50 8 -36 0 -44 -3 -44 -18z"/>
<path d="M3832 783 c-29 -164 -52 -301 -52 -305 0 -12 228 -10 250 2 26 14 32
38 81 314 l43 248 -23 19 c-20 16 -40 19 -135 19 l-111 0 -53 -297z m222 170
c-3 -21 -20 -119 -38 -218 l-31 -180 -53 -3 c-45 -3 -52 -1 -52 15 0 10 16
103 34 207 19 104 32 195 29 203 -4 10 9 13 56 13 l61 0 -6 -37z"/>
<path d="M4383 1052 c-1 -15 -20 -128 -42 -252 -22 -124 -43 -249 -47 -277
l-7 -53 41 0 40 0 12 68 c6 37 14 91 17 120 6 51 6 52 39 52 l34 0 0 -89 c0
-49 3 -103 6 -120 6 -29 10 -31 47 -31 l40 0 -7 119 -6 119 24 6 c30 7 30 6
61 180 34 195 40 186 -123 186 l-127 0 -2 -28z m180 -59 c3 -5 -1 -42 -9 -83
-24 -130 -18 -120 -76 -120 l-51 0 7 43 c3 23 9 70 12 105 l7 62 53 0 c29 0
55 -3 57 -7z"/>
<path d="M4935 1070 c-12 -4 -26 -14 -32 -22 -7 -7 -33 -134 -59 -280 -39
-220 -45 -270 -34 -283 10 -12 35 -15 120 -15 95 0 109 2 125 20 14 15 31 86
62 258 49 271 52 307 24 322 -23 12 -177 12 -206 0z m135 -98 c0 -10 -16 -107
-35 -215 -19 -108 -35 -199 -35 -202 0 -3 -25 -5 -55 -5 -30 0 -55 1 -55 3 0
2 16 93 35 202 20 110 34 208 31 218 -4 15 4 17 55 17 50 0 59 -3 59 -18z"/>
<path d="M5396 1068 c-3 -7 -25 -134 -50 -283 -26 -148 -49 -280 -52 -293 -4
-22 -2 -23 38 -20 l43 3 18 100 c9 55 16 108 13 118 -4 15 5 17 84 17 122 0
126 4 156 156 42 211 40 214 -134 214 -81 0 -114 -3 -116 -12z m183 -95 c-1
-42 -27 -165 -37 -175 -6 -6 -29 -8 -59 -3 l-50 6 14 77 c7 42 11 85 9 95 -4
15 4 17 60 17 54 0 64 -3 63 -17z"/>
</g>
</svg>
