<?xml version="1.0" standalone="no"?>
<!DOCTYPE svg PUBLIC "-//W3C//DTD SVG 20010904//EN"
 "http://www.w3.org/TR/2001/REC-SVG-20010904/DTD/svg10.dtd">
<svg version="1.0" xmlns="http://www.w3.org/2000/svg"
 width="622.000000pt" height="401.000000pt" viewBox="0 0 622.000000 401.000000"
 preserveAspectRatio="xMidYMid meet">

<g transform="translate(0.000000,401.000000) scale(0.100000,-0.100000)"
fill="#000000" stroke="none">
<path d="M2814 3553 c-7 -31 -70 -277 -85 -335 l-10 -38 -249 0 c-138 0 -250
-2 -250 -4 0 -3 -92 -374 -205 -825 -113 -450 -205 -826 -205 -835 0 -14 32
-16 289 -16 284 0 290 0 296 21 4 11 94 368 200 792 l193 772 111 3 111 3 0
-796 0 -795 390 0 389 0 10 38 c5 20 24 93 41 162 17 69 36 142 41 163 l10 37
249 0 250 0 5 22 c3 13 95 384 205 825 110 442 200 810 200 818 0 13 -38 15
-290 15 -159 0 -290 -1 -290 -2 -2 -18 -399 -1580 -403 -1584 -4 -4 -118 -7
-199 -5 -17 1 -18 48 -20 794 l-3 792 -387 3 -388 2 -6 -27z m694 -855 l2
-798 138 0 c76 0 141 -2 144 -5 2 -3 -12 -71 -33 -152 l-38 -148 -310 -3 -311
-2 0 795 0 795 -140 0 c-105 0 -140 3 -140 13 -1 29 64 280 75 290 8 9 95 12
311 12 l299 0 3 -797z m1178 788 c5 -13 -358 -1482 -369 -1493 -5 -5 -397 -6
-402 -1 -5 7 371 1494 380 1500 6 4 95 8 198 7 149 0 189 -3 193 -13z m-1992
-418 c-4 -13 -89 -349 -188 -748 l-182 -725 -202 -3 c-134 -2 -202 1 -202 8 0
8 326 1322 361 1453 l10 37 205 0 205 0 -7 -22z"/>
</g>
</svg>
