<?xml version="1.0" standalone="no"?>
<!DOCTYPE svg PUBLIC "-//W3C//DTD SVG 20010904//EN"
 "http://www.w3.org/TR/2001/REC-SVG-20010904/DTD/svg10.dtd">
<svg version="1.0" xmlns="http://www.w3.org/2000/svg"
 width="474.000000pt" height="413.000000pt" viewBox="0 0 474.000000 413.000000"
 preserveAspectRatio="xMidYMid meet">

<g transform="translate(0.000000,413.000000) scale(0.100000,-0.100000)"
fill="#000000" stroke="none">
<path d="M2520 3746 c-151 -46 -295 -112 -433 -197 -115 -71 -190 -131 -301
-238 -247 -241 -410 -504 -530 -857 -40 -116 -44 -124 -91 -161 -164 -129
-248 -291 -214 -411 37 -132 219 -204 474 -187 55 3 111 9 125 12 29 7 31 11
-70 -115 -198 -245 -272 -493 -147 -492 40 0 97 26 189 86 487 316 976 516
1435 588 242 38 581 41 766 6 77 -15 67 -5 -25 23 -429 134 -973 81 -1553
-152 -140 -56 -91 -17 85 67 343 165 689 247 1127 268 78 4 140 11 137 16 -9
14 -138 76 -222 107 -239 88 -533 111 -822 66 -52 -8 -117 -12 -145 -9 -50 6
-185 60 -185 74 0 26 237 61 450 67 247 7 440 -14 700 -77 63 -16 116 -27 118
-25 5 5 -137 61 -238 94 -117 38 -277 76 -390 92 -112 16 -410 16 -530 0 -337
-45 -676 -168 -931 -337 -37 -24 -70 -44 -75 -44 -5 0 14 23 41 51 106 108
354 248 568 320 93 31 97 34 92 58 -5 25 2 29 112 81 399 188 731 520 878 880
33 82 76 232 90 313 l6 37 -54 0 c-131 0 -344 -62 -520 -150 -263 -133 -496
-329 -706 -595 -76 -95 -238 -339 -275 -413 -15 -30 -29 -52 -32 -49 -2 2 7
37 22 78 180 500 582 913 1077 1105 120 46 119 57 -3 20z"/>
<path d="M2452 2594 c-14 -9 -22 -26 -22 -43 0 -52 20 -58 195 -64 416 -14
799 -137 1065 -343 40 -30 74 -54 76 -51 4 4 -135 142 -181 180 -96 76 -267
171 -402 223 -224 84 -666 144 -731 98z"/>
<path d="M492 711 c-55 -26 -80 -77 -63 -131 14 -48 35 -66 117 -99 76 -31 95
-50 75 -75 -17 -20 -82 -20 -136 -1 -55 20 -55 20 -55 -25 0 -47 12 -55 108
-66 134 -15 212 32 212 128 0 65 -31 97 -122 127 -76 25 -97 43 -78 66 15 18
77 20 131 3 45 -13 44 -13 52 29 8 43 -10 53 -116 59 -68 4 -89 2 -125 -15z"/>
<path d="M1100 721 c-80 -25 -130 -74 -150 -150 -24 -91 22 -190 106 -232 39
-19 64 -24 124 -24 41 1 85 7 98 14 20 10 22 17 16 49 -4 20 -7 38 -9 39 -1 2
-27 -3 -59 -9 -52 -11 -61 -10 -94 7 -99 53 -64 225 47 225 22 0 52 -5 67 -10
33 -13 42 -5 46 40 3 31 0 36 -32 47 -39 13 -122 15 -160 4z"/>
<path d="M1510 520 l0 -211 63 3 62 3 3 68 c2 57 6 67 21 67 12 0 22 -13 31
-42 27 -92 33 -98 104 -98 34 0 65 3 68 6 3 3 -12 35 -33 72 -21 37 -39 70
-39 74 0 4 13 14 28 22 35 18 52 54 52 112 0 39 -5 51 -33 79 -43 43 -90 55
-219 55 l-108 0 0 -210z m212 113 c44 -40 10 -113 -54 -113 -28 0 -28 1 -28
65 l0 65 32 0 c17 0 40 -7 50 -17z"/>
<path d="M2063 528 c-29 -112 -48 -207 -44 -211 5 -5 28 -7 52 -5 41 3 44 5
52 41 9 37 9 37 61 37 l53 0 12 -40 12 -40 74 0 c44 0 75 4 75 10 0 9 -59 228
-96 358 l-15 52 -92 0 -92 0 -52 -202z m151 43 c9 -49 16 -92 16 -95 0 -3 -18
-6 -40 -6 -25 0 -40 5 -40 13 0 29 33 177 40 177 4 0 15 -40 24 -89z"/>
<path d="M2590 520 l0 -210 108 0 c160 0 229 26 252 95 14 44 -9 99 -52 121
l-29 15 25 20 c20 16 26 29 26 60 0 77 -70 109 -240 109 l-90 0 0 -210z m220
110 c33 -33 3 -70 -59 -70 -30 0 -31 1 -31 45 0 45 0 45 35 45 22 0 43 -8 55
-20z m1 -171 c18 -18 19 -23 6 -42 -10 -16 -26 -23 -56 -25 l-41 -3 0 45 c0
46 0 46 35 46 22 0 43 -8 56 -21z"/>
<path d="M3170 519 l0 -211 128 4 c106 4 134 8 169 26 49 26 63 47 63 98 0 30
-7 44 -39 74 l-38 36 23 21 c34 30 32 81 -3 116 -36 33 -95 46 -210 47 l-93 0
0 -211z m211 121 c11 -6 19 -21 19 -35 0 -28 -26 -45 -69 -45 -30 0 -31 1 -31
45 0 44 1 45 31 45 17 0 39 -5 50 -10z m0 -170 c21 -12 25 -50 7 -68 -7 -7
-29 -12 -50 -12 l-38 0 0 45 c0 44 1 45 31 45 17 0 39 -5 50 -10z"/>
<path d="M3744 717 c-2 -7 -3 -100 -2 -207 l3 -195 60 0 60 0 3 208 2 207 -60
0 c-40 0 -62 -4 -66 -13z"/>
<path d="M4050 680 l0 -50 45 0 44 0 3 -157 3 -158 60 0 60 0 3 157 3 157 47
3 47 3 3 48 3 47 -160 0 -161 0 0 -50z"/>
</g>
</svg>
